<svg width="36" height="36" viewBox="0 0 36 36" fill="none" xmlns="http://www.w3.org/2000/svg">
<path d="M26.625 4.5C29.3174 4.5 31.5 6.68261 31.5 9.375V18.0327C30.8052 17.5879 30.0502 17.2287 29.25 16.9703V12.75H6.75V26.625C6.75 28.0748 7.92525 29.25 9.375 29.25H16.9703C17.2287 30.0502 17.5879 30.8052 18.0327 31.5H9.375C6.68261 31.5 4.5 29.3174 4.5 26.625V9.375C4.5 6.68261 6.68261 4.5 9.375 4.5H26.625ZM26.625 6.75H9.375C7.92525 6.75 6.75 7.92525 6.75 9.375V10.5H29.25V9.375C29.25 7.92525 28.0748 6.75 26.625 6.75Z" fill="#C84F04"/>
<path d="M34.5 26.25C34.5 30.8064 30.8064 34.5 26.25 34.5C21.6936 34.5 18 30.8064 18 26.25C18 21.6936 21.6936 18 26.25 18C30.8064 18 34.5 21.6936 34.5 26.25ZM31.2804 22.7196C30.9874 22.4268 30.5126 22.4268 30.2196 22.7196L24.75 28.1894L22.2804 25.7196C21.9874 25.4268 21.5126 25.4268 21.2196 25.7196C20.9268 26.0126 20.9268 26.4874 21.2196 26.7804L24.2196 29.7804C24.5126 30.0732 24.9874 30.0732 25.2804 29.7804L31.2804 23.7804C31.5732 23.4874 31.5732 23.0126 31.2804 22.7196Z" fill="#C84F04"/>
</svg>
