<svg width="110" height="61" viewBox="0 0 110 61" fill="none" xmlns="http://www.w3.org/2000/svg">
<path d="M69.175 6.46249H56.0688C55.675 6.46249 55.3375 6.57499 55 6.74374C54.6625 6.57499 54.325 6.46249 53.9313 6.46249H40.825C39.6438 6.46249 38.6875 7.41874 38.6875 8.59999V28.4562C38.6875 29.6375 39.6438 30.5937 40.825 30.5937H53.9313C54.325 30.5937 54.6625 30.4812 55 30.3125C55.3375 30.4812 55.675 30.5937 56.0688 30.5937H69.175C70.3563 30.5937 71.3125 29.6375 71.3125 28.4562V8.54374C71.3125 7.41874 70.3563 6.46249 69.175 6.46249ZM53.8187 28.2875H40.9375V8.71249H53.7625V28.2875H53.8187ZM69.0625 28.2875H56.1812V8.71249H69.0625V28.2875Z" fill="#C84F04"/>
<path d="M46.2813 19.0625C46.2813 20.975 46.2813 22.8875 46.2813 24.8C46.2813 25.1375 46.2813 25.4187 46.2813 25.7562C46.2813 26.375 46.7875 26.8812 47.4063 26.8812C48.025 26.8812 48.5313 26.375 48.5313 25.7562C48.5313 23.5062 48.5313 21.3125 48.5313 19.0625C50.05 18.5562 51.175 17.15 51.175 15.4625C51.175 13.6062 49.7125 10.1187 47.4063 10.1187C45.0438 10.1187 43.6375 13.55 43.6375 15.4625C43.5813 17.15 44.7063 18.6125 46.2813 19.0625ZM47.4063 12.3687C47.8563 12.3687 48.925 14.1687 48.925 15.4625C48.925 16.3062 48.25 16.9812 47.4063 16.9812C46.5625 16.9812 45.8875 16.3062 45.8875 15.4625C45.8313 14.1687 46.9 12.3687 47.4063 12.3687Z" fill="#C84F04"/>
<path d="M59.2749 12.425C61.2437 12.425 63.1562 12.425 65.1249 12.425C65.4062 12.425 65.6874 12.425 65.9687 12.425C66.5312 12.425 67.0937 11.9187 67.0937 11.3C67.0937 10.6812 66.5874 10.175 65.9687 10.175C63.9999 10.175 62.0874 10.175 60.1187 10.175C59.8374 10.175 59.5562 10.175 59.2749 10.175C58.7124 10.175 58.1499 10.6812 58.1499 11.3C58.2062 11.9187 58.6562 12.425 59.2749 12.425Z" fill="#C84F04"/>
<path d="M59.2749 17.15C61.2437 17.15 63.1562 17.15 65.1249 17.15C65.4062 17.15 65.6874 17.15 65.9687 17.15C66.5312 17.15 67.0937 16.6437 67.0937 16.025C67.0937 15.4062 66.5874 14.9 65.9687 14.9C63.9999 14.9 62.0874 14.9 60.1187 14.9C59.8374 14.9 59.5562 14.9 59.2749 14.9C58.7124 14.9 58.1499 15.4062 58.1499 16.025C58.2062 16.6437 58.6562 17.15 59.2749 17.15Z" fill="#C84F04"/>
<path d="M59.2749 22.0437C61.2437 22.0437 63.1562 22.0437 65.1249 22.0437C65.4062 22.0437 65.6874 22.0437 65.9687 22.0437C66.5312 22.0437 67.0937 21.5375 67.0937 20.9187C67.0937 20.3 66.5874 19.7937 65.9687 19.7937C63.9999 19.7937 62.0874 19.7937 60.1187 19.7937C59.8374 19.7937 59.5562 19.7937 59.2749 19.7937C58.7124 19.7937 58.1499 20.3 58.1499 20.9187C58.2062 21.5375 58.6562 22.0437 59.2749 22.0437Z" fill="#C84F04"/>
<path d="M59.2749 26.8813C61.2437 26.8813 63.1562 26.8813 65.1249 26.8813C65.4062 26.8813 65.6874 26.8813 65.9687 26.8813C66.5312 26.8813 67.0937 26.375 67.0937 25.7563C67.0937 25.1375 66.5874 24.6313 65.9687 24.6313C63.9999 24.6313 62.0874 24.6313 60.1187 24.6313C59.8374 24.6313 59.5562 24.6313 59.2749 24.6313C58.7124 24.6313 58.1499 25.1375 58.1499 25.7563C58.2062 26.375 58.6562 26.8813 59.2749 26.8813Z" fill="#C84F04"/>
<path d="M8.56055 49.2549H11.1885C11.1357 50.1162 10.8984 50.8809 10.4766 51.5488C10.0605 52.2168 9.47754 52.7383 8.72754 53.1133C7.9834 53.4883 7.08691 53.6758 6.03809 53.6758C5.21777 53.6758 4.48242 53.5352 3.83203 53.2539C3.18164 52.9668 2.625 52.5566 2.16211 52.0234C1.70508 51.4902 1.35645 50.8457 1.11621 50.0898C0.875977 49.334 0.755859 48.4873 0.755859 47.5498V46.6621C0.755859 45.7246 0.878906 44.8779 1.125 44.1221C1.37695 43.3604 1.73438 42.7129 2.19727 42.1797C2.66602 41.6465 3.22559 41.2363 3.87598 40.9492C4.52637 40.6621 5.25293 40.5186 6.05566 40.5186C7.12207 40.5186 8.02148 40.7119 8.75391 41.0986C9.49219 41.4854 10.0635 42.0186 10.4678 42.6982C10.8779 43.3779 11.124 44.1514 11.2061 45.0186H8.56934C8.54004 44.5029 8.4375 44.0664 8.26172 43.709C8.08594 43.3457 7.81934 43.0732 7.46191 42.8916C7.11035 42.7041 6.6416 42.6104 6.05566 42.6104C5.61621 42.6104 5.23242 42.6924 4.9043 42.8564C4.57617 43.0205 4.30078 43.2695 4.07812 43.6035C3.85547 43.9375 3.68848 44.3594 3.57715 44.8691C3.47168 45.373 3.41895 45.9648 3.41895 46.6445V47.5498C3.41895 48.2119 3.46875 48.7949 3.56836 49.2988C3.66797 49.7969 3.82031 50.2188 4.02539 50.5645C4.23633 50.9043 4.50586 51.1621 4.83398 51.3379C5.16797 51.5078 5.56934 51.5928 6.03809 51.5928C6.58887 51.5928 7.04297 51.5049 7.40039 51.3291C7.75781 51.1533 8.03027 50.8926 8.21777 50.5469C8.41113 50.2012 8.52539 49.7705 8.56055 49.2549ZM18.123 42.8916L14.6426 53.5H11.8389L16.5938 40.7031H18.3779L18.123 42.8916ZM21.0146 53.5L17.5254 42.8916L17.2441 40.7031H19.0459L23.8271 53.5H21.0146ZM20.8564 48.7363V50.8018H14.0977V48.7363H20.8564ZM29.6455 40.7031V53.5H27.0176V40.7031H29.6455ZM33.583 40.7031V42.7686H23.1416V40.7031H33.583ZM43.6729 51.4434V53.5H36.8613V51.4434H43.6729ZM37.7227 40.7031V53.5H35.0859V40.7031H37.7227ZM42.7852 45.915V47.9189H36.8613V45.915H42.7852ZM43.6641 40.7031V42.7686H36.8613V40.7031H43.6641ZM45.2109 40.7031H49.9834C50.9619 40.7031 51.8027 40.8496 52.5059 41.1426C53.2148 41.4355 53.7598 41.8691 54.1406 42.4434C54.5215 43.0176 54.7119 43.7236 54.7119 44.5615C54.7119 45.2471 54.5947 45.8359 54.3604 46.3281C54.1318 46.8145 53.8066 47.2217 53.3848 47.5498C52.9688 47.8721 52.4795 48.1299 51.917 48.3232L51.082 48.7627H46.9336L46.916 46.7061H50.001C50.4639 46.7061 50.8477 46.624 51.1523 46.46C51.457 46.2959 51.6855 46.0674 51.8379 45.7744C51.9961 45.4814 52.0752 45.1416 52.0752 44.7549C52.0752 44.3447 51.999 43.9902 51.8467 43.6914C51.6943 43.3926 51.4629 43.1641 51.1523 43.0059C50.8418 42.8477 50.4521 42.7686 49.9834 42.7686H47.8477V53.5H45.2109V40.7031ZM52.3652 53.5L49.4473 47.7959L52.2334 47.7783L55.1865 53.377V53.5H52.3652ZM59.5459 40.7031V53.5H56.918V40.7031H59.5459ZM72.4307 40.7031V53.5H69.7939L64.6523 44.9219V53.5H62.0156V40.7031H64.6523L69.8027 49.29V40.7031H72.4307ZM84.8672 46.8115V51.8828C84.668 52.123 84.3604 52.3838 83.9443 52.665C83.5283 52.9404 82.9922 53.1777 82.3359 53.377C81.6797 53.5762 80.8857 53.6758 79.9541 53.6758C79.1279 53.6758 78.375 53.541 77.6953 53.2715C77.0156 52.9961 76.4297 52.5947 75.9375 52.0674C75.4512 51.54 75.0762 50.8955 74.8125 50.1338C74.5488 49.3662 74.417 48.4902 74.417 47.5059V46.7061C74.417 45.7217 74.543 44.8457 74.7949 44.0781C75.0527 43.3105 75.4189 42.6631 75.8936 42.1357C76.3682 41.6084 76.9336 41.207 77.5898 40.9316C78.2461 40.6562 78.9756 40.5186 79.7783 40.5186C80.8916 40.5186 81.8057 40.7002 82.5205 41.0635C83.2354 41.4209 83.7803 41.9189 84.1553 42.5576C84.5361 43.1904 84.7705 43.917 84.8584 44.7373H82.3008C82.2363 44.3037 82.1133 43.9258 81.9316 43.6035C81.75 43.2812 81.4893 43.0293 81.1494 42.8477C80.8154 42.666 80.3818 42.5752 79.8486 42.5752C79.4092 42.5752 79.0166 42.666 78.6709 42.8477C78.3311 43.0234 78.0439 43.2842 77.8096 43.6299C77.5752 43.9756 77.3965 44.4033 77.2734 44.9131C77.1504 45.4229 77.0889 46.0146 77.0889 46.6885V47.5059C77.0889 48.1738 77.1533 48.7656 77.2822 49.2812C77.4111 49.791 77.6016 50.2217 77.8535 50.5732C78.1113 50.9189 78.4277 51.1797 78.8027 51.3555C79.1777 51.5312 79.6143 51.6191 80.1123 51.6191C80.5283 51.6191 80.874 51.584 81.1494 51.5137C81.4307 51.4434 81.6562 51.3584 81.8262 51.2588C82.002 51.1533 82.1367 51.0537 82.2305 50.96V48.6924H79.8223V46.8115H84.8672Z" fill="#C84F04"/>
<path fill-rule="evenodd" clip-rule="evenodd" d="M106.25 44.8295C106.25 44.4065 105.883 44.072 105.467 44.0833H90.5098C89.8445 44.0653 89.4748 44.8858 89.9533 45.3598L97.4525 52.7848C97.748 53.0773 98.2258 53.0668 98.5243 52.7848L106.018 45.3658C106.159 45.23 106.25 45.041 106.25 44.8295ZM97.988 51.1933L92.3135 45.575H103.663L97.988 51.1933Z" fill="#C84F04"/>
</svg>
