<svg width="109" height="59" viewBox="0 0 109 59" fill="none" xmlns="http://www.w3.org/2000/svg">
<path d="M45.5 10.8C45.5 6.82355 48.7235 3.60001 52.7 3.60001C56.6764 3.60001 59.9 6.82355 59.9 10.8C59.9 14.7765 56.6764 18 52.7 18C48.7235 18 45.5 14.7765 45.5 10.8ZM52.7 5.40001C49.7177 5.40001 47.3 7.81768 47.3 10.8C47.3 13.7823 49.7177 16.2 52.7 16.2C55.6824 16.2 58.1 13.7823 58.1 10.8C58.1 7.81768 55.6824 5.40001 52.7 5.40001Z" fill="#C84F04"/>
<path d="M40.1001 23.4C40.1001 21.3964 41.7258 19.8 43.7158 19.8H61.7001C62.2216 19.8 62.7171 19.9109 63.1644 20.1103C62.9623 20.9046 63.0262 21.7488 63.3433 22.5H63.2593C62.9479 21.962 62.3663 21.6 61.7001 21.6H43.7158C42.7062 21.6 41.9001 22.404 41.9001 23.4C41.9001 25.7558 43.0202 27.5106 44.9108 28.7161C46.8378 29.9448 49.5769 30.6 52.7001 30.6C54.4313 30.6 56.0445 30.3987 57.4669 30.0099C57.2237 30.6196 57.1475 31.2811 57.2365 31.9221C55.8166 32.2436 54.2839 32.4 52.7001 32.4C49.3616 32.4 46.2506 31.7052 43.9431 30.2339C41.5992 28.7393 40.1001 26.4441 40.1001 23.4Z" fill="#C84F04"/>
<path d="M65.0021 20.2768L65.7207 18.5825C66.0577 17.7879 66.8648 17.3557 67.6564 17.5206L67.8256 17.5652L68.7253 17.8527C69.6175 18.1377 70.3006 18.902 70.5213 19.8617C71.0456 22.1423 70.4165 24.919 68.634 28.192C66.8542 31.4599 64.9033 33.4249 62.7817 34.0868C61.9578 34.3436 61.0727 34.157 60.4069 33.5981L60.2311 33.4364L59.5478 32.7505C58.9556 32.1559 58.8335 31.2154 59.2306 30.4796L59.3316 30.3136L60.3614 28.8005C60.7667 28.2051 61.4599 27.9234 62.1279 28.0658L62.3092 28.1151L64.2105 28.7492C64.9692 28.175 65.6019 27.4523 66.1084 26.5811C66.5428 25.8343 66.8266 25.0774 66.9605 24.3103L67.0149 23.926L65.4318 22.4233C64.9103 21.9283 64.7208 21.1576 64.9341 20.4638L65.0021 20.2768Z" fill="#C84F04"/>
<path d="M8.56055 50.7549H11.1885C11.1357 51.6162 10.8984 52.3809 10.4766 53.0488C10.0605 53.7168 9.47754 54.2383 8.72754 54.6133C7.9834 54.9883 7.08691 55.1758 6.03809 55.1758C5.21777 55.1758 4.48242 55.0352 3.83203 54.7539C3.18164 54.4668 2.625 54.0566 2.16211 53.5234C1.70508 52.9902 1.35645 52.3457 1.11621 51.5898C0.875977 50.834 0.755859 49.9873 0.755859 49.0498V48.1621C0.755859 47.2246 0.878906 46.3779 1.125 45.6221C1.37695 44.8604 1.73438 44.2129 2.19727 43.6797C2.66602 43.1465 3.22559 42.7363 3.87598 42.4492C4.52637 42.1621 5.25293 42.0186 6.05566 42.0186C7.12207 42.0186 8.02148 42.2119 8.75391 42.5986C9.49219 42.9854 10.0635 43.5186 10.4678 44.1982C10.8779 44.8779 11.124 45.6514 11.2061 46.5186H8.56934C8.54004 46.0029 8.4375 45.5664 8.26172 45.209C8.08594 44.8457 7.81934 44.5732 7.46191 44.3916C7.11035 44.2041 6.6416 44.1104 6.05566 44.1104C5.61621 44.1104 5.23242 44.1924 4.9043 44.3564C4.57617 44.5205 4.30078 44.7695 4.07812 45.1035C3.85547 45.4375 3.68848 45.8594 3.57715 46.3691C3.47168 46.873 3.41895 47.4648 3.41895 48.1445V49.0498C3.41895 49.7119 3.46875 50.2949 3.56836 50.7988C3.66797 51.2969 3.82031 51.7188 4.02539 52.0645C4.23633 52.4043 4.50586 52.6621 4.83398 52.8379C5.16797 53.0078 5.56934 53.0928 6.03809 53.0928C6.58887 53.0928 7.04297 53.0049 7.40039 52.8291C7.75781 52.6533 8.03027 52.3926 8.21777 52.0469C8.41113 51.7012 8.52539 51.2705 8.56055 50.7549ZM23.4316 48.3027V48.9092C23.4316 49.8818 23.2998 50.7549 23.0361 51.5283C22.7725 52.3018 22.4004 52.9609 21.9199 53.5059C21.4395 54.0449 20.8652 54.458 20.1973 54.7451C19.5352 55.0322 18.7998 55.1758 17.9912 55.1758C17.1885 55.1758 16.4531 55.0322 15.7852 54.7451C15.123 54.458 14.5488 54.0449 14.0625 53.5059C13.5762 52.9609 13.1982 52.3018 12.9287 51.5283C12.665 50.7549 12.5332 49.8818 12.5332 48.9092V48.3027C12.5332 47.3242 12.665 46.4512 12.9287 45.6836C13.1924 44.9102 13.5645 44.251 14.0449 43.7061C14.5312 43.1611 15.1055 42.7451 15.7676 42.458C16.4355 42.1709 17.1709 42.0273 17.9736 42.0273C18.7822 42.0273 19.5176 42.1709 20.1797 42.458C20.8477 42.7451 21.4219 43.1611 21.9023 43.7061C22.3887 44.251 22.7637 44.9102 23.0273 45.6836C23.2969 46.4512 23.4316 47.3242 23.4316 48.3027ZM20.7686 48.9092V48.2852C20.7686 47.6055 20.707 47.0078 20.584 46.4922C20.4609 45.9766 20.2793 45.543 20.0391 45.1914C19.7988 44.8398 19.5059 44.5762 19.1602 44.4004C18.8145 44.2188 18.4189 44.1279 17.9736 44.1279C17.5283 44.1279 17.1328 44.2188 16.7871 44.4004C16.4473 44.5762 16.1572 44.8398 15.917 45.1914C15.6826 45.543 15.5039 45.9766 15.3809 46.4922C15.2578 47.0078 15.1963 47.6055 15.1963 48.2852V48.9092C15.1963 49.583 15.2578 50.1807 15.3809 50.7021C15.5039 51.2178 15.6855 51.6543 15.9258 52.0117C16.166 52.3633 16.459 52.6299 16.8047 52.8115C17.1504 52.9932 17.5459 53.084 17.9912 53.084C18.4365 53.084 18.832 52.9932 19.1777 52.8115C19.5234 52.6299 19.8135 52.3633 20.0479 52.0117C20.2822 51.6543 20.4609 51.2178 20.584 50.7021C20.707 50.1807 20.7686 49.583 20.7686 48.9092ZM35.7451 42.2031V55H33.1084L27.9668 46.4219V55H25.3301V42.2031H27.9668L33.1172 50.79V42.2031H35.7451ZM43.4971 42.2031V55H40.8691V42.2031H43.4971ZM47.4346 42.2031V44.2686H36.9932V42.2031H47.4346ZM53.1914 44.3916L49.7109 55H46.9072L51.6621 42.2031H53.4463L53.1914 44.3916ZM56.083 55L52.5938 44.3916L52.3125 42.2031H54.1143L58.8955 55H56.083ZM55.9248 50.2363V52.3018H49.166V50.2363H55.9248ZM67.3418 50.7549H69.9697C69.917 51.6162 69.6797 52.3809 69.2578 53.0488C68.8418 53.7168 68.2588 54.2383 67.5088 54.6133C66.7646 54.9883 65.8682 55.1758 64.8193 55.1758C63.999 55.1758 63.2637 55.0352 62.6133 54.7539C61.9629 54.4668 61.4062 54.0566 60.9434 53.5234C60.4863 52.9902 60.1377 52.3457 59.8975 51.5898C59.6572 50.834 59.5371 49.9873 59.5371 49.0498V48.1621C59.5371 47.2246 59.6602 46.3779 59.9062 45.6221C60.1582 44.8604 60.5156 44.2129 60.9785 43.6797C61.4473 43.1465 62.0068 42.7363 62.6572 42.4492C63.3076 42.1621 64.0342 42.0186 64.8369 42.0186C65.9033 42.0186 66.8027 42.2119 67.5352 42.5986C68.2734 42.9854 68.8447 43.5186 69.249 44.1982C69.6592 44.8779 69.9053 45.6514 69.9873 46.5186H67.3506C67.3213 46.0029 67.2188 45.5664 67.043 45.209C66.8672 44.8457 66.6006 44.5732 66.2432 44.3916C65.8916 44.2041 65.4229 44.1104 64.8369 44.1104C64.3975 44.1104 64.0137 44.1924 63.6855 44.3564C63.3574 44.5205 63.082 44.7695 62.8594 45.1035C62.6367 45.4375 62.4697 45.8594 62.3584 46.3691C62.2529 46.873 62.2002 47.4648 62.2002 48.1445V49.0498C62.2002 49.7119 62.25 50.2949 62.3496 50.7988C62.4492 51.2969 62.6016 51.7188 62.8066 52.0645C63.0176 52.4043 63.2871 52.6621 63.6152 52.8379C63.9492 53.0078 64.3506 53.0928 64.8193 53.0928C65.3701 53.0928 65.8242 53.0049 66.1816 52.8291C66.5391 52.6533 66.8115 52.3926 66.999 52.0469C67.1924 51.7012 67.3066 51.2705 67.3418 50.7549ZM77.1592 42.2031V55H74.5312V42.2031H77.1592ZM81.0967 42.2031V44.2686H70.6553V42.2031H81.0967ZM93.6738 42.2031H96.3018V50.6582C96.3018 51.6426 96.0908 52.4717 95.6689 53.1455C95.2529 53.8193 94.6758 54.3262 93.9375 54.666C93.2051 55.0059 92.3613 55.1758 91.4062 55.1758C90.4512 55.1758 89.6016 55.0059 88.8574 54.666C88.1191 54.3262 87.5391 53.8193 87.1172 53.1455C86.7012 52.4717 86.4932 51.6426 86.4932 50.6582V42.2031H89.1299V50.6582C89.1299 51.2324 89.2207 51.7012 89.4023 52.0645C89.584 52.4277 89.8447 52.6943 90.1846 52.8643C90.5303 53.0342 90.9375 53.1191 91.4062 53.1191C91.8867 53.1191 92.2939 53.0342 92.6279 52.8643C92.9678 52.6943 93.2256 52.4277 93.4014 52.0645C93.583 51.7012 93.6738 51.2324 93.6738 50.6582V42.2031ZM105.135 51.6514C105.135 51.4229 105.1 51.2178 105.029 51.0361C104.965 50.8486 104.842 50.6787 104.66 50.5264C104.479 50.3682 104.224 50.2129 103.896 50.0605C103.567 49.9082 103.143 49.75 102.621 49.5859C102.041 49.3984 101.49 49.1875 100.969 48.9531C100.453 48.7188 99.9961 48.4463 99.5977 48.1357C99.2051 47.8193 98.8945 47.4531 98.666 47.0371C98.4434 46.6211 98.332 46.1377 98.332 45.5869C98.332 45.0537 98.4492 44.5703 98.6836 44.1367C98.918 43.6973 99.2461 43.3223 99.668 43.0117C100.09 42.6953 100.588 42.4521 101.162 42.2822C101.742 42.1123 102.378 42.0273 103.069 42.0273C104.013 42.0273 104.836 42.1973 105.539 42.5371C106.242 42.877 106.787 43.3428 107.174 43.9346C107.566 44.5264 107.763 45.2031 107.763 45.9648H105.144C105.144 45.5898 105.064 45.2617 104.906 44.9805C104.754 44.6934 104.52 44.4678 104.203 44.3037C103.893 44.1396 103.5 44.0576 103.025 44.0576C102.568 44.0576 102.188 44.1279 101.883 44.2686C101.578 44.4033 101.35 44.5879 101.197 44.8223C101.045 45.0508 100.969 45.3086 100.969 45.5957C100.969 45.8125 101.021 46.0088 101.127 46.1846C101.238 46.3604 101.402 46.5244 101.619 46.6768C101.836 46.8291 102.103 46.9727 102.419 47.1074C102.735 47.2422 103.102 47.374 103.518 47.5029C104.215 47.7139 104.827 47.9512 105.354 48.2148C105.888 48.4785 106.333 48.7744 106.69 49.1025C107.048 49.4307 107.317 49.8027 107.499 50.2188C107.681 50.6348 107.771 51.1064 107.771 51.6338C107.771 52.1904 107.663 52.6885 107.446 53.1279C107.229 53.5674 106.916 53.9395 106.506 54.2441C106.096 54.5488 105.606 54.7803 105.038 54.9385C104.47 55.0967 103.834 55.1758 103.131 55.1758C102.498 55.1758 101.874 55.0938 101.259 54.9297C100.644 54.7598 100.084 54.5049 99.5801 54.165C99.082 53.8252 98.6836 53.3916 98.3848 52.8643C98.0859 52.3369 97.9365 51.7129 97.9365 50.9922H100.582C100.582 51.3906 100.644 51.7275 100.767 52.0029C100.89 52.2783 101.062 52.501 101.285 52.6709C101.514 52.8408 101.783 52.9639 102.094 53.04C102.41 53.1162 102.756 53.1543 103.131 53.1543C103.588 53.1543 103.963 53.0898 104.256 52.9609C104.555 52.832 104.774 52.6533 104.915 52.4248C105.062 52.1963 105.135 51.9385 105.135 51.6514Z" fill="#C84F04"/>
</svg>
