<svg width="91" height="65" viewBox="0 0 91 65" fill="none" xmlns="http://www.w3.org/2000/svg">
<g clip-path="url(#clip0_86_139)">
<path d="M36.3045 27.544L44.4287 34.2957L44.5494 34.6928L45.4566 34.2156L45.3359 33.8185L47.68 21.561C50.5133 19.8632 51.8183 15.3388 50.5858 11.2857C49.3186 7.11798 45.8458 5.01134 42.8442 6.58997C42.4922 6.77511 42.1539 7.03126 41.8253 7.32278C40.2668 5.98305 38.3092 5.60311 36.517 6.54571C34.7248 7.48831 33.5055 9.53839 33.0798 11.9225C32.6896 12.0097 32.3101 12.1303 31.9576 12.3157C28.9561 13.8944 27.5454 18.5695 28.8126 22.7371C30.0451 26.7903 33.3623 28.8837 36.3045 27.544ZM37.3475 26.9044C38.6661 25.8648 39.6102 24.1436 39.982 22.082C40.206 22.0316 40.4285 21.957 40.6498 21.8697L43.8151 32.2795L37.3475 26.9044ZM41.5575 21.3923C41.7641 21.2552 41.9642 21.1069 42.1525 20.9404C43.5024 22.0958 45.0888 22.4869 46.5888 22.0439L44.7228 31.8021L41.5575 21.3923ZM42.6219 8.12384C42.8101 7.97968 43.0023 7.85565 43.1978 7.75283C45.699 6.43734 48.6064 8.23644 49.6786 11.7628C50.7509 15.2892 49.5885 19.2287 47.0873 20.5442C45.7428 21.2514 44.2289 21.0778 42.935 20.0965C42.9384 20.0921 42.9416 20.087 42.945 20.0825C43.0301 19.973 43.1108 19.8597 43.1901 19.7432C43.2269 19.6894 43.2631 19.6353 43.2989 19.5801C43.3671 19.4741 43.4346 19.3671 43.4988 19.2564C43.5436 19.1789 43.5849 19.0985 43.6272 19.0196C43.6974 18.8869 43.7663 18.7536 43.8301 18.6155C43.8953 18.4753 43.9587 18.3327 44.0171 18.1873C44.0517 18.1004 44.083 18.0111 44.1153 17.9219C44.1587 17.8033 44.2007 17.6835 44.2395 17.5619C44.2688 17.4696 44.2968 17.3766 44.324 17.2827C44.3607 17.1542 44.3939 17.0248 44.4253 16.8943C44.4469 16.8061 44.4694 16.7193 44.4885 16.6297C44.5324 16.4246 44.5708 16.2169 44.6026 16.0066C44.6159 15.9187 44.6243 15.8286 44.6356 15.7397C44.6527 15.6019 44.6691 15.4638 44.6808 15.3241C44.6898 15.2189 44.6962 15.1136 44.702 15.0081C44.7092 14.8776 44.7139 14.7462 44.7166 14.6147C44.7187 14.511 44.7212 14.4086 44.7206 14.3044C44.7192 14.1163 44.7122 13.9271 44.7005 13.7383C44.6948 13.6415 44.6864 13.5447 44.678 13.448C44.6631 13.2744 44.6452 13.1011 44.6219 12.9278C44.6099 12.8398 44.5959 12.7521 44.5816 12.6638C44.5561 12.5019 44.5259 12.3404 44.4927 12.1791C44.4764 12.1014 44.461 12.0231 44.4432 11.9455C44.3891 11.7089 44.3293 11.474 44.2586 11.2414C44.1721 10.9571 44.0735 10.6846 43.9673 10.4201C43.9354 10.3411 43.8992 10.2671 43.8661 10.1894C43.7863 10.0047 43.7041 9.82272 43.615 9.64905C43.5717 9.5639 43.5254 9.48239 43.4796 9.39925C43.3906 9.2383 43.2988 9.08159 43.2026 8.93123C43.1521 8.85187 43.1011 8.77416 43.0485 8.69798C42.9445 8.5463 42.8362 8.40296 42.7253 8.26304C42.6894 8.21782 42.6583 8.16742 42.6219 8.12384ZM36.8706 7.70856C38.4301 6.88835 40.1474 7.27933 41.4792 8.54475L41.5017 8.56667C41.516 8.58074 41.5292 8.59669 41.5435 8.61077C41.7177 8.78217 41.8814 8.96922 42.038 9.16604C42.0711 9.20732 42.1042 9.24859 42.1365 9.29093C42.2973 9.5031 42.4499 9.72633 42.5895 9.96384C42.6013 9.98389 42.612 10.0066 42.6234 10.0269C42.7483 10.2438 42.8616 10.4729 42.9674 10.7085C42.9965 10.7729 43.025 10.8374 43.0524 10.9033C43.1624 11.1664 43.265 11.4362 43.3509 11.7188C43.4124 11.9211 43.4646 12.1257 43.512 12.33C43.5289 12.4028 43.542 12.4754 43.5569 12.5485C43.5838 12.6801 43.6091 12.8118 43.6302 12.9436C43.6443 13.0313 43.6563 13.1194 43.6677 13.2071C43.6831 13.3252 43.6961 13.4424 43.7067 13.5603C43.7154 13.6528 43.7238 13.7462 43.7294 13.839C43.7364 13.954 43.7398 14.0689 43.7426 14.1835C43.745 14.2746 43.7487 14.3664 43.7485 14.4575C43.7482 14.6 43.7418 14.7416 43.7346 14.8823C43.7285 15.0076 43.7191 15.1325 43.7081 15.2571C43.6968 15.381 43.6857 15.5055 43.6698 15.6279C43.6578 15.7198 43.6415 15.81 43.6265 15.9008C43.6093 16.005 43.592 16.1092 43.5716 16.2116C43.5527 16.3052 43.5319 16.3977 43.5099 16.4896C43.487 16.5859 43.4628 16.6809 43.4373 16.7753C43.4116 16.869 43.3853 16.9624 43.3565 17.0545C43.3296 17.1408 43.2998 17.2246 43.2706 17.3087C43.2364 17.4056 43.2035 17.5032 43.166 17.5978C43.1425 17.6573 43.116 17.7137 43.0916 17.7718C42.9131 18.1901 42.7024 18.5841 42.4552 18.9407C42.4545 18.9418 42.4537 18.9428 42.453 18.9439C42.3637 19.0725 42.2693 19.1963 42.1715 19.3159C42.1669 19.3216 42.1619 19.3276 42.1574 19.3334C42.0585 19.4529 41.9549 19.5674 41.847 19.6761C41.5199 20.0072 41.1592 20.29 40.76 20.5C40.3608 20.7099 39.9513 20.8322 39.5408 20.889C39.4056 20.9081 39.2709 20.9183 39.1363 20.9223C39.13 20.9223 39.1232 20.9224 39.1169 20.9224C38.9836 20.9251 38.8502 20.921 38.718 20.9083C38.7169 20.9082 38.7158 20.9081 38.7147 20.908C38.3487 20.8739 37.9896 20.7795 37.641 20.6385C37.5924 20.6188 37.5436 20.602 37.4959 20.5799C37.4191 20.5454 37.3443 20.5052 37.2685 20.4655C37.2028 20.4312 37.1378 20.3973 37.0731 20.3592C37.0039 20.3187 36.9359 20.2749 36.8681 20.2303C36.7997 20.1853 36.7324 20.1385 36.6658 20.0892C36.6015 20.0421 36.5381 19.9945 36.4754 19.9439C36.4069 19.8882 36.3393 19.8286 36.2726 19.7686C36.2141 19.7164 36.1549 19.6652 36.0982 19.6101C36.022 19.5362 35.9492 19.4558 35.8761 19.3762C35.8028 19.2961 35.7306 19.2147 35.6604 19.1289C35.5812 19.0329 35.5028 18.9359 35.4275 18.8339C35.3796 18.768 35.3342 18.6982 35.2882 18.63C35.2301 18.5445 35.1723 18.4582 35.1172 18.3686C35.0726 18.2963 35.0303 18.2214 34.9874 18.1461C34.9338 18.0509 34.8813 17.9544 34.8305 17.855C34.7928 17.7811 34.7553 17.7064 34.7195 17.6301C34.6657 17.5155 34.6146 17.3974 34.5655 17.2775C34.5379 17.2111 34.5093 17.1465 34.4834 17.0786C34.4102 16.8878 34.3413 16.6927 34.2796 16.4898C34.1937 16.2072 34.1266 15.9188 34.0683 15.6284C34.0536 15.5559 34.0411 15.4836 34.0281 15.4115C33.9812 15.1448 33.9434 14.8753 33.9197 14.6052C33.9174 14.5802 33.9131 14.5541 33.9112 14.5288C33.8878 14.2302 33.8812 13.9302 33.8863 13.6301C33.8871 13.5703 33.89 13.5108 33.8923 13.4509C33.9026 13.1663 33.9229 12.8818 33.9596 12.5995C33.9626 12.5763 33.9638 12.5527 33.9668 12.5296L33.9716 12.4934C34.2723 10.3693 35.3111 8.52878 36.8706 7.70856ZM32.3112 13.4786C32.5067 13.3757 32.711 13.2913 32.9229 13.225C32.9193 13.2896 32.9232 13.3543 32.9208 13.419C32.9133 13.6212 32.9107 13.8235 32.9147 14.0271C32.9167 14.1306 32.9205 14.2331 32.9254 14.3357C32.9347 14.5325 32.9502 14.7287 32.9702 14.9259C32.9804 15.0271 32.9898 15.1287 33.0031 15.2296C33.0302 15.4366 33.0655 15.6426 33.1045 15.8487C33.1208 15.9352 33.1334 16.0216 33.1522 16.1075C33.2141 16.396 33.2855 16.6828 33.372 16.9671C33.4427 17.1997 33.5225 17.4241 33.6074 17.6445C33.6352 17.7169 33.6651 17.7875 33.6941 17.8586C33.7545 18.0055 33.8176 18.149 33.8837 18.2903C33.9196 18.3665 33.9551 18.4436 33.993 18.5181C34.067 18.6646 34.1449 18.8064 34.2251 18.9457C34.2697 19.0233 34.3144 19.101 34.361 19.1763C34.452 19.3234 34.5461 19.4667 34.6432 19.6045C34.6969 19.6808 34.753 19.7525 34.8089 19.8256C34.8797 19.9185 34.9516 20.0095 35.0257 20.0973C35.0852 20.1685 35.1454 20.2387 35.2067 20.3069C35.2883 20.3969 35.3727 20.4826 35.4573 20.567C35.5122 20.6211 35.5655 20.6787 35.6212 20.7303C35.7545 20.8538 35.8911 20.9694 36.0305 21.0782C36.0911 21.1252 36.1536 21.1679 36.215 21.2125C36.3066 21.2783 36.3987 21.3424 36.492 21.4019C36.5605 21.4455 36.6295 21.4874 36.6996 21.5275C36.7914 21.5803 36.8847 21.6291 36.9783 21.6756C37.0484 21.7109 37.1174 21.7474 37.1885 21.7788C37.3072 21.8317 37.4278 21.8769 37.5485 21.9193C37.6671 21.9614 37.7871 21.9961 37.9072 22.028C37.9799 22.0471 38.0518 22.0673 38.1244 22.083C38.2287 22.1058 38.3334 22.1215 38.4389 22.1362C38.4938 22.1437 38.5484 22.1501 38.6032 22.1556C38.7216 22.1676 38.8396 22.177 38.9587 22.1791C38.9635 22.1793 38.9684 22.18 38.9732 22.1802C38.5506 24.0642 37.5456 25.5626 36.2007 26.27C33.6995 27.5855 30.7921 25.7864 29.7199 22.26C28.6476 18.7336 29.81 14.7941 32.3112 13.4786Z" fill="#C84F04"/>
</g>
<path d="M57.9941 20.8551C58.0711 20.3243 57.8064 19.8118 57.4029 19.7105C56.9992 19.6091 56.6096 19.9572 56.5325 20.488C56.4869 20.8024 56.4069 21.1007 56.2977 21.3761C56.1622 21.7183 55.9815 22.0254 55.766 22.2836C55.557 22.5339 55.3158 22.7375 55.0521 22.8825C54.9099 22.9606 54.761 23.0218 54.6068 23.0641C54.2046 23.1744 53.9466 23.6928 54.0305 24.2218C54.1145 24.7508 54.5086 25.0901 54.9108 24.9797C55.1583 24.9118 55.3975 24.8135 55.6258 24.688C56.0491 24.4554 56.4346 24.1294 56.7678 23.7303C57.1114 23.3187 57.4001 22.8285 57.6172 22.2806C57.7922 21.8388 57.9208 21.3598 57.9941 20.8551Z" fill="#C84F04"/>
<path d="M48.1453 11.718C48.1453 11.1776 48.4783 10.7395 48.8892 10.7395H59.3045C59.7154 10.7395 60.0485 11.1776 60.0485 11.718V20.1977C60.0485 24.3697 57.6661 27.8098 54.5928 28.2932V34.8855L57.3183 34.8741C57.7291 34.8725 58.0633 35.3091 58.0646 35.8494C58.0659 36.3898 57.7339 36.8293 57.323 36.831L53.8513 36.8455H53.8461L50.8703 36.831C50.4595 36.8291 50.1276 36.3893 50.1291 35.8489C50.1307 35.3086 50.465 34.8722 50.8758 34.8741L53.1049 34.885V28.288C50.3064 27.8086 48.1453 24.6612 48.1453 20.85V11.718ZM49.6332 12.6964V16.284H58.5606V12.6964H49.6332ZM49.6332 20.85C49.6332 23.9121 51.5206 26.3944 53.8489 26.3944C56.4511 26.3944 58.5606 23.6201 58.5606 20.1977V18.2408H49.6332V20.85Z" fill="#C84F04"/>
<path d="M9.72949 57.4434V59.5H2.91797V57.4434H9.72949ZM3.7793 46.7031V59.5H1.14258V46.7031H3.7793ZM8.8418 51.915V53.9189H2.91797V51.915H8.8418ZM9.7207 46.7031V48.7686H2.91797V46.7031H9.7207ZM15.8818 56.8281L18.8965 46.7031H21.832L17.376 59.5H15.4424L15.8818 56.8281ZM13.1045 46.7031L16.1104 56.8281L16.5674 59.5H14.6162L10.1865 46.7031H13.1045ZM31.6143 57.4434V59.5H24.8027V57.4434H31.6143ZM25.6641 46.7031V59.5H23.0273V46.7031H25.6641ZM30.7266 51.915V53.9189H24.8027V51.915H30.7266ZM31.6055 46.7031V48.7686H24.8027V46.7031H31.6055ZM43.5674 46.7031V59.5H40.9307L35.7891 50.9219V59.5H33.1523V46.7031H35.7891L40.9395 55.29V46.7031H43.5674ZM51.3193 46.7031V59.5H48.6914V46.7031H51.3193ZM55.2568 46.7031V48.7686H44.8154V46.7031H55.2568ZM63.2812 56.1514C63.2812 55.9229 63.2461 55.7178 63.1758 55.5361C63.1113 55.3486 62.9883 55.1787 62.8066 55.0264C62.625 54.8682 62.3701 54.7129 62.042 54.5605C61.7139 54.4082 61.2891 54.25 60.7676 54.0859C60.1875 53.8984 59.6367 53.6875 59.1152 53.4531C58.5996 53.2188 58.1426 52.9463 57.7441 52.6357C57.3516 52.3193 57.041 51.9531 56.8125 51.5371C56.5898 51.1211 56.4785 50.6377 56.4785 50.0869C56.4785 49.5537 56.5957 49.0703 56.8301 48.6367C57.0645 48.1973 57.3926 47.8223 57.8145 47.5117C58.2363 47.1953 58.7344 46.9521 59.3086 46.7822C59.8887 46.6123 60.5244 46.5273 61.2158 46.5273C62.1592 46.5273 62.9824 46.6973 63.6855 47.0371C64.3887 47.377 64.9336 47.8428 65.3203 48.4346C65.7129 49.0264 65.9092 49.7031 65.9092 50.4648H63.29C63.29 50.0898 63.2109 49.7617 63.0527 49.4805C62.9004 49.1934 62.666 48.9678 62.3496 48.8037C62.0391 48.6396 61.6465 48.5576 61.1719 48.5576C60.7148 48.5576 60.334 48.6279 60.0293 48.7686C59.7246 48.9033 59.4961 49.0879 59.3438 49.3223C59.1914 49.5508 59.1152 49.8086 59.1152 50.0957C59.1152 50.3125 59.168 50.5088 59.2734 50.6846C59.3848 50.8604 59.5488 51.0244 59.7656 51.1768C59.9824 51.3291 60.249 51.4727 60.5654 51.6074C60.8818 51.7422 61.248 51.874 61.6641 52.0029C62.3613 52.2139 62.9736 52.4512 63.501 52.7148C64.0342 52.9785 64.4795 53.2744 64.8369 53.6025C65.1943 53.9307 65.4639 54.3027 65.6455 54.7188C65.8271 55.1348 65.918 55.6064 65.918 56.1338C65.918 56.6904 65.8096 57.1885 65.5928 57.6279C65.376 58.0674 65.0625 58.4395 64.6523 58.7441C64.2422 59.0488 63.7529 59.2803 63.1846 59.4385C62.6162 59.5967 61.9805 59.6758 61.2773 59.6758C60.6445 59.6758 60.0205 59.5938 59.4053 59.4297C58.79 59.2598 58.2305 59.0049 57.7266 58.665C57.2285 58.3252 56.8301 57.8916 56.5312 57.3643C56.2324 56.8369 56.083 56.2129 56.083 55.4922H58.7285C58.7285 55.8906 58.79 56.2275 58.9131 56.5029C59.0361 56.7783 59.209 57.001 59.4316 57.1709C59.6602 57.3408 59.9297 57.4639 60.2402 57.54C60.5566 57.6162 60.9023 57.6543 61.2773 57.6543C61.7344 57.6543 62.1094 57.5898 62.4023 57.4609C62.7012 57.332 62.9209 57.1533 63.0615 56.9248C63.208 56.6963 63.2812 56.4385 63.2812 56.1514Z" fill="#C84F04"/>
<path fill-rule="evenodd" clip-rule="evenodd" d="M87.25 49.3295C87.25 48.9065 86.8833 48.572 86.467 48.5833H71.5098C70.8445 48.5653 70.4748 49.3858 70.9533 49.8598L78.4525 57.2848C78.748 57.5773 79.2258 57.5668 79.5243 57.2848L87.0175 49.8658C87.1593 49.73 87.25 49.541 87.25 49.3295ZM78.988 55.6933L73.3135 50.075H84.6625L78.988 55.6933Z" fill="#C84F04"/>
<defs>
<clipPath id="clip0_86_139">
<rect width="25.626" height="30.3856" fill="white" transform="matrix(0.885054 -0.465489 0.290916 0.956749 25 11.9286)"/>
</clipPath>
</defs>
</svg>
