<svg width="52" height="53" viewBox="0 0 52 53" fill="none" xmlns="http://www.w3.org/2000/svg">
<path d="M23.5825 1.3155C24.979 0.228165 27.021 0.228165 28.4175 1.31551L39.6675 10.0749C40.5123 10.7328 41 11.7013 41 12.7219V27.807C41 29.2943 39.6942 30.5 38.0833 30.5H32.25C30.6392 30.5 29.3333 29.2943 29.3333 27.807V19.3432C29.3333 19.1308 29.1468 18.9585 28.9167 18.9585H23.0833C22.8532 18.9585 22.6667 19.1308 22.6667 19.3432V27.807C22.6667 29.2943 21.3608 30.5 19.75 30.5H13.9167C12.3058 30.5 11 29.2943 11 27.807V12.7219C11 11.7013 11.4876 10.7328 12.3325 10.0749L23.5825 1.3155ZM26.8058 3.08013C26.3403 2.71768 25.6597 2.71768 25.1942 3.08013L13.9442 11.8395C13.6625 12.0588 13.5 12.3817 13.5 12.7219V27.807C13.5 28.0195 13.6865 28.1917 13.9167 28.1917H19.75C19.9801 28.1917 20.1667 28.0195 20.1667 27.807V19.3432C20.1667 17.8559 21.4725 16.6502 23.0833 16.6502H28.9167C30.5275 16.6502 31.8333 17.8559 31.8333 19.3432V27.807C31.8333 28.0195 32.0198 28.1917 32.25 28.1917H38.0833C38.3135 28.1917 38.5 28.0195 38.5 27.807V12.7219C38.5 12.3817 38.3375 12.0588 38.0558 11.8395L26.8058 3.08013Z" fill="#C84F04"/>
<path d="M9.67676 40.915V42.9717H2.99707V40.915H9.67676ZM3.7793 35.7031V48.5H1.14258V35.7031H3.7793ZM11.5576 35.7031V48.5H8.92969V35.7031H11.5576ZM24.3633 41.8027V42.4092C24.3633 43.3818 24.2314 44.2549 23.9678 45.0283C23.7041 45.8018 23.332 46.4609 22.8516 47.0059C22.3711 47.5449 21.7969 47.958 21.1289 48.2451C20.4668 48.5322 19.7314 48.6758 18.9229 48.6758C18.1201 48.6758 17.3848 48.5322 16.7168 48.2451C16.0547 47.958 15.4805 47.5449 14.9941 47.0059C14.5078 46.4609 14.1299 45.8018 13.8604 45.0283C13.5967 44.2549 13.4648 43.3818 13.4648 42.4092V41.8027C13.4648 40.8242 13.5967 39.9512 13.8604 39.1836C14.124 38.4102 14.4961 37.751 14.9766 37.2061C15.4629 36.6611 16.0371 36.2451 16.6992 35.958C17.3672 35.6709 18.1025 35.5273 18.9053 35.5273C19.7139 35.5273 20.4492 35.6709 21.1113 35.958C21.7793 36.2451 22.3535 36.6611 22.834 37.2061C23.3203 37.751 23.6953 38.4102 23.959 39.1836C24.2285 39.9512 24.3633 40.8242 24.3633 41.8027ZM21.7002 42.4092V41.7852C21.7002 41.1055 21.6387 40.5078 21.5156 39.9922C21.3926 39.4766 21.2109 39.043 20.9707 38.6914C20.7305 38.3398 20.4375 38.0762 20.0918 37.9004C19.7461 37.7188 19.3506 37.6279 18.9053 37.6279C18.46 37.6279 18.0645 37.7188 17.7188 37.9004C17.3789 38.0762 17.0889 38.3398 16.8486 38.6914C16.6143 39.043 16.4355 39.4766 16.3125 39.9922C16.1895 40.5078 16.1279 41.1055 16.1279 41.7852V42.4092C16.1279 43.083 16.1895 43.6807 16.3125 44.2021C16.4355 44.7178 16.6172 45.1543 16.8574 45.5117C17.0977 45.8633 17.3906 46.1299 17.7363 46.3115C18.082 46.4932 18.4775 46.584 18.9229 46.584C19.3682 46.584 19.7637 46.4932 20.1094 46.3115C20.4551 46.1299 20.7451 45.8633 20.9795 45.5117C21.2139 45.1543 21.3926 44.7178 21.5156 44.2021C21.6387 43.6807 21.7002 43.083 21.7002 42.4092ZM27.4658 35.7031H29.6982L32.9854 45.0986L36.2725 35.7031H38.5049L33.8818 48.5H32.0889L27.4658 35.7031ZM26.2617 35.7031H28.4854L28.8896 44.8613V48.5H26.2617V35.7031ZM37.4854 35.7031H39.7178V48.5H37.0811V44.8613L37.4854 35.7031ZM50.6162 46.4434V48.5H43.8047V46.4434H50.6162ZM44.666 35.7031V48.5H42.0293V35.7031H44.666ZM49.7285 40.915V42.9189H43.8047V40.915H49.7285ZM50.6074 35.7031V37.7686H43.8047V35.7031H50.6074Z" fill="#C84F04"/>
</svg>
