<svg width="120" height="59" viewBox="0 0 120 59" fill="none" xmlns="http://www.w3.org/2000/svg">
<path d="M57.5 19.875C56.8787 19.875 56.375 20.3787 56.375 21C56.375 21.6213 56.8787 22.125 57.5 22.125H63.4999C64.1214 22.125 64.6249 21.6213 64.6249 21C64.6249 20.3787 64.1214 19.875 63.4999 19.875H57.5Z" fill="#C84F04"/>
<path fill-rule="evenodd" clip-rule="evenodd" d="M64.4967 3.49377C65.0525 3.21591 65.7282 3.44116 66.0062 3.99688L68.7261 9.43678C69.3674 9.46939 69.9522 9.51919 70.4822 9.59529C72.0657 9.82266 73.3764 10.3115 74.3079 11.4637C75.2394 12.6159 75.4427 13.9999 75.3332 15.5959C75.2271 17.1427 74.8091 19.0933 74.2865 21.5317L73.6094 24.6918C73.257 26.3365 72.9711 27.6706 72.6114 28.7128C72.2366 29.799 71.7423 30.6921 70.8984 31.3744C70.0544 32.0566 69.0776 32.3527 67.937 32.4916C66.8426 32.625 65.4782 32.625 63.7961 32.625H57.2038C55.5218 32.625 54.1574 32.625 53.0629 32.4916C51.9224 32.3527 50.9455 32.0566 50.1015 31.3744C49.2576 30.6921 48.7634 29.799 48.3885 28.7128C48.0288 27.6706 47.7429 26.3365 47.3905 24.6918L46.7134 21.5319C46.1908 19.0933 45.7728 17.1427 45.6667 15.5959C45.5572 13.9999 45.7606 12.6159 46.692 11.4637C47.6235 10.3115 48.9342 9.82266 50.5178 9.59529C51.0477 9.51921 51.6325 9.46939 52.2737 9.43678L54.9937 3.99688C55.2716 3.44116 55.9473 3.21591 56.503 3.49377C57.0588 3.77163 57.284 4.44739 57.0062 5.00311L54.8187 9.37809C55.364 9.37498 55.938 9.375 56.5411 9.375H64.4588C65.0618 9.375 65.636 9.37498 66.1812 9.37809L63.9936 5.00311C63.7158 4.44739 63.9411 3.77163 64.4967 3.49377ZM51.0981 11.7881L50.4937 12.9969C50.2158 13.5526 50.4411 14.2284 50.9968 14.5062C51.5525 14.7841 52.2283 14.5588 52.5062 14.0031L53.687 11.6414C54.5426 11.6255 55.5168 11.625 56.6329 11.625H64.3671C65.4831 11.625 66.4572 11.6255 67.3128 11.6414L68.4936 14.0031C68.7716 14.5588 69.4473 14.7841 70.0031 14.5062C70.5587 14.2284 70.784 13.5526 70.5062 12.9969L69.9017 11.7881C69.9905 11.7988 70.0773 11.8102 70.1624 11.8224C71.4882 12.0128 72.1388 12.3595 72.5582 12.8782C72.9704 13.3882 73.1732 14.0819 73.0929 15.375H47.9071C47.8267 14.0819 48.0295 13.3882 48.4418 12.8782C48.8611 12.3595 49.5117 12.0128 50.8376 11.8224C50.9225 11.8102 51.0093 11.7988 51.0981 11.7881ZM48.9327 21.15C48.6372 19.771 48.3899 18.6135 48.2104 17.625H72.7895C72.6099 18.6135 72.3627 19.771 72.0672 21.15L71.4243 24.15C71.0532 25.8819 70.7943 27.0811 70.4846 27.9787C70.1847 28.8471 69.8775 29.3064 69.4839 29.6247C69.0902 29.9428 68.5767 30.1471 67.6649 30.2581C66.7223 30.373 65.4953 30.375 63.7242 30.375H57.2757C55.5046 30.375 54.2776 30.373 53.3351 30.2581C52.4232 30.1471 51.9097 29.9428 51.5161 29.6247C51.1224 29.3064 50.8151 28.8471 50.5154 27.9787C50.2056 27.0811 49.9466 25.8819 49.5755 24.15L48.9327 21.15Z" fill="#C84F04"/>
<path d="M7.36426 42.2031V55H4.73633V42.2031H7.36426ZM11.3018 42.2031V44.2686H0.860352V42.2031H11.3018ZM12.8047 42.2031H17.5771C18.5557 42.2031 19.3965 42.3496 20.0996 42.6426C20.8086 42.9355 21.3535 43.3691 21.7344 43.9434C22.1152 44.5176 22.3057 45.2236 22.3057 46.0615C22.3057 46.7471 22.1885 47.3359 21.9541 47.8281C21.7256 48.3145 21.4004 48.7217 20.9785 49.0498C20.5625 49.3721 20.0732 49.6299 19.5107 49.8232L18.6758 50.2627H14.5273L14.5098 48.2061H17.5947C18.0576 48.2061 18.4414 48.124 18.7461 47.96C19.0508 47.7959 19.2793 47.5674 19.4316 47.2744C19.5898 46.9814 19.6689 46.6416 19.6689 46.2549C19.6689 45.8447 19.5928 45.4902 19.4404 45.1914C19.2881 44.8926 19.0566 44.6641 18.7461 44.5059C18.4355 44.3477 18.0459 44.2686 17.5771 44.2686H15.4414V55H12.8047V42.2031ZM19.959 55L17.041 49.2959L19.8271 49.2783L22.7803 54.877V55H19.959ZM29.5391 44.3916L26.0586 55H23.2549L28.0098 42.2031H29.7939L29.5391 44.3916ZM32.4307 55L28.9414 44.3916L28.6602 42.2031H30.4619L35.2432 55H32.4307ZM32.2725 50.2363V52.3018H25.5137V50.2363H32.2725ZM43.6895 50.7549H46.3174C46.2646 51.6162 46.0273 52.3809 45.6055 53.0488C45.1895 53.7168 44.6064 54.2383 43.8564 54.6133C43.1123 54.9883 42.2158 55.1758 41.167 55.1758C40.3467 55.1758 39.6113 55.0352 38.9609 54.7539C38.3105 54.4668 37.7539 54.0566 37.291 53.5234C36.834 52.9902 36.4854 52.3457 36.2451 51.5898C36.0049 50.834 35.8848 49.9873 35.8848 49.0498V48.1621C35.8848 47.2246 36.0078 46.3779 36.2539 45.6221C36.5059 44.8604 36.8633 44.2129 37.3262 43.6797C37.7949 43.1465 38.3545 42.7363 39.0049 42.4492C39.6553 42.1621 40.3818 42.0186 41.1846 42.0186C42.251 42.0186 43.1504 42.2119 43.8828 42.5986C44.6211 42.9854 45.1924 43.5186 45.5967 44.1982C46.0068 44.8779 46.2529 45.6514 46.335 46.5186H43.6982C43.6689 46.0029 43.5664 45.5664 43.3906 45.209C43.2148 44.8457 42.9482 44.5732 42.5908 44.3916C42.2393 44.2041 41.7705 44.1104 41.1846 44.1104C40.7451 44.1104 40.3613 44.1924 40.0332 44.3564C39.7051 44.5205 39.4297 44.7695 39.207 45.1035C38.9844 45.4375 38.8174 45.8594 38.7061 46.3691C38.6006 46.873 38.5479 47.4648 38.5479 48.1445V49.0498C38.5479 49.7119 38.5977 50.2949 38.6973 50.7988C38.7969 51.2969 38.9492 51.7188 39.1543 52.0645C39.3652 52.4043 39.6348 52.6621 39.9629 52.8379C40.2969 53.0078 40.6982 53.0928 41.167 53.0928C41.7178 53.0928 42.1719 53.0049 42.5293 52.8291C42.8867 52.6533 43.1592 52.3926 43.3467 52.0469C43.54 51.7012 43.6543 51.2705 43.6895 50.7549ZM50.6855 42.2031V55H48.0488V42.2031H50.6855ZM58.3496 42.2031L53.2783 48.5225L50.3516 51.6689L49.877 49.1729L51.8545 46.4658L55.1152 42.2031H58.3496ZM55.3525 55L51.582 49.085L53.5332 47.4502L58.4727 55H55.3525ZM74.4863 48.3027V48.9092C74.4863 49.8818 74.3545 50.7549 74.0908 51.5283C73.8271 52.3018 73.4551 52.9609 72.9746 53.5059C72.4941 54.0449 71.9199 54.458 71.252 54.7451C70.5898 55.0322 69.8545 55.1758 69.0459 55.1758C68.2432 55.1758 67.5078 55.0322 66.8398 54.7451C66.1777 54.458 65.6035 54.0449 65.1172 53.5059C64.6309 52.9609 64.2529 52.3018 63.9834 51.5283C63.7197 50.7549 63.5879 49.8818 63.5879 48.9092V48.3027C63.5879 47.3242 63.7197 46.4512 63.9834 45.6836C64.2471 44.9102 64.6191 44.251 65.0996 43.7061C65.5859 43.1611 66.1602 42.7451 66.8223 42.458C67.4902 42.1709 68.2256 42.0273 69.0283 42.0273C69.8369 42.0273 70.5723 42.1709 71.2344 42.458C71.9023 42.7451 72.4766 43.1611 72.957 43.7061C73.4434 44.251 73.8184 44.9102 74.082 45.6836C74.3516 46.4512 74.4863 47.3242 74.4863 48.3027ZM71.8232 48.9092V48.2852C71.8232 47.6055 71.7617 47.0078 71.6387 46.4922C71.5156 45.9766 71.334 45.543 71.0938 45.1914C70.8535 44.8398 70.5605 44.5762 70.2148 44.4004C69.8691 44.2188 69.4736 44.1279 69.0283 44.1279C68.583 44.1279 68.1875 44.2188 67.8418 44.4004C67.502 44.5762 67.2119 44.8398 66.9717 45.1914C66.7373 45.543 66.5586 45.9766 66.4355 46.4922C66.3125 47.0078 66.251 47.6055 66.251 48.2852V48.9092C66.251 49.583 66.3125 50.1807 66.4355 50.7021C66.5586 51.2178 66.7402 51.6543 66.9805 52.0117C67.2207 52.3633 67.5137 52.6299 67.8594 52.8115C68.2051 52.9932 68.6006 53.084 69.0459 53.084C69.4912 53.084 69.8867 52.9932 70.2324 52.8115C70.5781 52.6299 70.8682 52.3633 71.1025 52.0117C71.3369 51.6543 71.5156 51.2178 71.6387 50.7021C71.7617 50.1807 71.8232 49.583 71.8232 48.9092ZM76.3848 42.2031H81.1572C82.1357 42.2031 82.9766 42.3496 83.6797 42.6426C84.3887 42.9355 84.9336 43.3691 85.3145 43.9434C85.6953 44.5176 85.8857 45.2236 85.8857 46.0615C85.8857 46.7471 85.7686 47.3359 85.5342 47.8281C85.3057 48.3145 84.9805 48.7217 84.5586 49.0498C84.1426 49.3721 83.6533 49.6299 83.0908 49.8232L82.2559 50.2627H78.1074L78.0898 48.2061H81.1748C81.6377 48.2061 82.0215 48.124 82.3262 47.96C82.6309 47.7959 82.8594 47.5674 83.0117 47.2744C83.1699 46.9814 83.249 46.6416 83.249 46.2549C83.249 45.8447 83.1729 45.4902 83.0205 45.1914C82.8682 44.8926 82.6367 44.6641 82.3262 44.5059C82.0156 44.3477 81.626 44.2686 81.1572 44.2686H79.0215V55H76.3848V42.2031ZM83.5391 55L80.6211 49.2959L83.4072 49.2783L86.3604 54.877V55H83.5391ZM91.8447 55H89.0586L89.0762 52.9434H91.8447C92.5361 52.9434 93.1191 52.7881 93.5938 52.4775C94.0684 52.1611 94.4258 51.7012 94.666 51.0977C94.9121 50.4941 95.0352 49.7646 95.0352 48.9092V48.2852C95.0352 47.6289 94.9648 47.0518 94.8242 46.5537C94.6895 46.0557 94.4873 45.6367 94.2178 45.2969C93.9482 44.957 93.6172 44.7021 93.2246 44.5322C92.832 44.3564 92.3809 44.2686 91.8711 44.2686H89.0059V42.2031H91.8711C92.7266 42.2031 93.5088 42.3496 94.2178 42.6426C94.9326 42.9297 95.5508 43.3428 96.0723 43.8818C96.5938 44.4209 96.9951 45.0654 97.2764 45.8154C97.5635 46.5596 97.707 47.3887 97.707 48.3027V48.9092C97.707 49.8174 97.5635 50.6465 97.2764 51.3965C96.9951 52.1465 96.5938 52.791 96.0723 53.3301C95.5566 53.8633 94.9385 54.2764 94.2178 54.5693C93.5029 54.8564 92.7119 55 91.8447 55ZM90.5527 42.2031V55H87.916V42.2031H90.5527ZM108.21 52.9434V55H101.398V52.9434H108.21ZM102.26 42.2031V55H99.623V42.2031H102.26ZM107.322 47.415V49.4189H101.398V47.415H107.322ZM108.201 42.2031V44.2686H101.398V42.2031H108.201ZM109.748 42.2031H114.521C115.499 42.2031 116.34 42.3496 117.043 42.6426C117.752 42.9355 118.297 43.3691 118.678 43.9434C119.059 44.5176 119.249 45.2236 119.249 46.0615C119.249 46.7471 119.132 47.3359 118.897 47.8281C118.669 48.3145 118.344 48.7217 117.922 49.0498C117.506 49.3721 117.017 49.6299 116.454 49.8232L115.619 50.2627H111.471L111.453 48.2061H114.538C115.001 48.2061 115.385 48.124 115.689 47.96C115.994 47.7959 116.223 47.5674 116.375 47.2744C116.533 46.9814 116.612 46.6416 116.612 46.2549C116.612 45.8447 116.536 45.4902 116.384 45.1914C116.231 44.8926 116 44.6641 115.689 44.5059C115.379 44.3477 114.989 44.2686 114.521 44.2686H112.385V55H109.748V42.2031ZM116.902 55L113.984 49.2959L116.771 49.2783L119.724 54.877V55H116.902Z" fill="#C84F04"/>
</svg>
